solid OpenSCAD_Model
  facet normal 0 -1 0
    outer loop
      vertex -2.5 6 -1.59999
      vertex -1.5 6 -0.599991
      vertex -2.75 6 -1.59999
    endloop
  endfacet
  facet normal 0 -1 0
    outer loop
      vertex 2.5 6 -1.59999
      vertex 2.75 6 -1.59999
      vertex 1.5 6 -0.599991
    endloop
  endfacet
  facet normal -0 -1 0
    outer loop
      vertex 2.75 6 1.59999
      vertex 2.5 6 1.59999
      vertex 1.5 6 0.599991
    endloop
  endfacet
  facet normal 0 -1 0
    outer loop
      vertex -1.5 6 0.599991
      vertex -2.5 6 1.59999
      vertex -2.75 6 1.59999
    endloop
  endfacet
  facet normal 0 1 0
    outer loop
      vertex 2.75 7 -1.59999
      vertex 2.5 7 -1.59999
      vertex 1.5 7 -0.599991
    endloop
  endfacet
  facet normal 0 1 0
    outer loop
      vertex -1.5 7 -0.599991
      vertex -2.5 7 -1.59999
      vertex -2.75 7 -1.59999
    endloop
  endfacet
  facet normal -0 1 0
    outer loop
      vertex 2.5 7 1.59999
      vertex 2.75 7 1.59999
      vertex 1.5 7 0.599991
    endloop
  endfacet
  facet normal 0 1 0
    outer loop
      vertex -2.5 7 1.59999
      vertex -1.5 7 0.599991
      vertex -2.75 7 1.59999
    endloop
  endfacet
  facet normal 1 -0 0
    outer loop
      vertex 1.5 39.8 0.599991
      vertex 1.5 44.8 -0.599991
      vertex 1.5 44.8 0.599991
    endloop
  endfacet
  facet normal 1 0 0
    outer loop
      vertex 1.5 39.8 0.599991
      vertex 1.5 39.8 -0.599991
      vertex 1.5 44.8 -0.599991
    endloop
  endfacet
  facet normal 1 -0 0
    outer loop
      vertex 1.5 38.8 0.599991
      vertex 1.5 39.8 -0.599991
      vertex 1.5 39.8 0.599991
    endloop
  endfacet
  facet normal 1 0 0
    outer loop
      vertex 1.5 38.8 0.599991
      vertex 1.5 38.8 -0.599991
      vertex 1.5 39.8 -0.599991
    endloop
  endfacet
  facet normal 1 -0 0
    outer loop
      vertex 1.5 7 0.599991
      vertex 1.5 38.8 -0.599991
      vertex 1.5 38.8 0.599991
    endloop
  endfacet
  facet normal 1 0 0
    outer loop
      vertex 1.5 7 0.599991
      vertex 1.5 7 -0.599991
      vertex 1.5 38.8 -0.599991
    endloop
  endfacet
  facet normal 1 -0 0
    outer loop
      vertex 1.5 6 0.599991
      vertex 1.5 7 -0.599991
      vertex 1.5 7 0.599991
    endloop
  endfacet
  facet normal 1 0 0
    outer loop
      vertex 1.5 6 0.599991
      vertex 1.5 6 -0.599991
      vertex 1.5 7 -0.599991
    endloop
  endfacet
  facet normal 1 -0 0
    outer loop
      vertex 1.5 0 0.599991
      vertex 1.5 6 -0.599991
      vertex 1.5 6 0.599991
    endloop
  endfacet
  facet normal 1 0 0
    outer loop
      vertex 1.5 6 -0.599991
      vertex 1.5 0 0.599991
      vertex 1.5 0 -0.599991
    endloop
  endfacet
  facet normal 0.624695 0 0.780869
    outer loop
      vertex 1.5 7 -0.599991
      vertex 2.75 6 -1.59999
      vertex 2.75 7 -1.59999
    endloop
  endfacet
  facet normal 0.624695 0 0.780869
    outer loop
      vertex 2.75 6 -1.59999
      vertex 1.5 7 -0.599991
      vertex 1.5 6 -0.599991
    endloop
  endfacet
  facet normal 0 0 -1
    outer loop
      vertex -2.75 38.8 -1.59999
      vertex -2.5 39.8 -1.59999
      vertex -2.5 38.8 -1.59999
    endloop
  endfacet
  facet normal -0 0 -1
    outer loop
      vertex -2.5 39.8 -1.59999
      vertex -2.75 38.8 -1.59999
      vertex -2.75 39.8 -1.59999
    endloop
  endfacet
  facet normal 0 0 -1
    outer loop
      vertex -2.75 6 -1.59999
      vertex -2.5 7 -1.59999
      vertex -2.5 6 -1.59999
    endloop
  endfacet
  facet normal -0 0 -1
    outer loop
      vertex -2.5 7 -1.59999
      vertex -2.75 6 -1.59999
      vertex -2.75 7 -1.59999
    endloop
  endfacet
  facet normal 0 0 -1
    outer loop
      vertex -2.5 6 -1.59999
      vertex 2.5 6 -1.59999
      vertex 2.5 0 -1.59999
    endloop
  endfacet
  facet normal 0 0 -1
    outer loop
      vertex 2.5 6 -1.59999
      vertex -2.5 6 -1.59999
      vertex 2.5 7 -1.59999
    endloop
  endfacet
  facet normal 0 0 -1
    outer loop
      vertex 2.5 7 -1.59999
      vertex -2.5 7 -1.59999
      vertex 2.5 38.8 -1.59999
    endloop
  endfacet
  facet normal 0 0 -1
    outer loop
      vertex -2.5 38.8 -1.59999
      vertex 2.5 38.8 -1.59999
      vertex -2.5 7 -1.59999
    endloop
  endfacet
  facet normal 0 0 -1
    outer loop
      vertex 2.5 38.8 -1.59999
      vertex -2.5 38.8 -1.59999
      vertex 2.5 39.8 -1.59999
    endloop
  endfacet
  facet normal 0 0 -1
    outer loop
      vertex -2.5 39.8 -1.59999
      vertex 2.5 39.8 -1.59999
      vertex -2.5 38.8 -1.59999
    endloop
  endfacet
  facet normal 0 0 -1
    outer loop
      vertex -2.5 6 -1.59999
      vertex 2.5 0 -1.59999
      vertex -2.5 0 -1.59999
    endloop
  endfacet
  facet normal -0 0 -1
    outer loop
      vertex 2.5 7 -1.59999
      vertex -2.5 6 -1.59999
      vertex -2.5 7 -1.59999
    endloop
  endfacet
  facet normal 0 0 -1
    outer loop
      vertex 2.5 39.8 -1.59999
      vertex -2.5 39.8 -1.59999
      vertex 2.5 41.7415 -1.59999
    endloop
  endfacet
  facet normal 0 0 -1
    outer loop
      vertex -2.5 41.7415 -1.59999
      vertex 2.5 41.7415 -1.59999
      vertex -2.5 39.8 -1.59999
    endloop
  endfacet
  facet normal 0 0 -1
    outer loop
      vertex 2.5 41.7415 -1.59999
      vertex -2.5 41.7415 -1.59999
      vertex 1.988 44.8 -1.59999
    endloop
  endfacet
  facet normal -0 0 -1
    outer loop
      vertex 1.988 44.8 -1.59999
      vertex -2.5 41.7415 -1.59999
      vertex -1.988 44.8 -1.59999
    endloop
  endfacet
  facet normal 0 0 -1
    outer loop
      vertex 2.5 6 -1.59999
      vertex 2.75 7 -1.59999
      vertex 2.75 6 -1.59999
    endloop
  endfacet
  facet normal -0 0 -1
    outer loop
      vertex 2.75 7 -1.59999
      vertex 2.5 6 -1.59999
      vertex 2.5 7 -1.59999
    endloop
  endfacet
  facet normal 0 0 -1
    outer loop
      vertex 2.5 38.8 -1.59999
      vertex 2.75 39.8 -1.59999
      vertex 2.75 38.8 -1.59999
    endloop
  endfacet
  facet normal -0 0 -1
    outer loop
      vertex 2.75 39.8 -1.59999
      vertex 2.5 38.8 -1.59999
      vertex 2.5 39.8 -1.59999
    endloop
  endfacet
  facet normal -0.624695 0 0.780869
    outer loop
      vertex -2.75 7 -1.59999
      vertex -1.5 6 -0.599991
      vertex -1.5 7 -0.599991
    endloop
  endfacet
  facet normal -0.624695 0 0.780869
    outer loop
      vertex -1.5 6 -0.599991
      vertex -2.75 7 -1.59999
      vertex -2.75 6 -1.59999
    endloop
  endfacet
  facet normal -1 0 0
    outer loop
      vertex -1.5 39.8 -0.599991
      vertex -1.5 44.8 0.599991
      vertex -1.5 44.8 -0.599991
    endloop
  endfacet
  facet normal -1 0 0
    outer loop
      vertex -1.5 39.8 -0.599991
      vertex -1.5 39.8 0.599991
      vertex -1.5 44.8 0.599991
    endloop
  endfacet
  facet normal -1 0 0
    outer loop
      vertex -1.5 38.8 -0.599991
      vertex -1.5 39.8 0.599991
      vertex -1.5 39.8 -0.599991
    endloop
  endfacet
  facet normal -1 0 0
    outer loop
      vertex -1.5 38.8 -0.599991
      vertex -1.5 38.8 0.599991
      vertex -1.5 39.8 0.599991
    endloop
  endfacet
  facet normal -1 0 0
    outer loop
      vertex -1.5 7 -0.599991
      vertex -1.5 38.8 0.599991
      vertex -1.5 38.8 -0.599991
    endloop
  endfacet
  facet normal -1 0 0
    outer loop
      vertex -1.5 7 -0.599991
      vertex -1.5 7 0.599991
      vertex -1.5 38.8 0.599991
    endloop
  endfacet
  facet normal -1 0 0
    outer loop
      vertex -1.5 6 -0.599991
      vertex -1.5 7 0.599991
      vertex -1.5 7 -0.599991
    endloop
  endfacet
  facet normal -1 0 0
    outer loop
      vertex -1.5 6 -0.599991
      vertex -1.5 6 0.599991
      vertex -1.5 7 0.599991
    endloop
  endfacet
  facet normal -1 0 0
    outer loop
      vertex -1.5 0 -0.599991
      vertex -1.5 6 0.599991
      vertex -1.5 6 -0.599991
    endloop
  endfacet
  facet normal -1 -0 0
    outer loop
      vertex -1.5 6 0.599991
      vertex -1.5 0 -0.599991
      vertex -1.5 0 0.599991
    endloop
  endfacet
  facet normal -0.624695 0 -0.780869
    outer loop
      vertex -2.75 6 1.59999
      vertex -1.5 7 0.599991
      vertex -1.5 6 0.599991
    endloop
  endfacet
  facet normal -0.624695 0 -0.780869
    outer loop
      vertex -1.5 7 0.599991
      vertex -2.75 6 1.59999
      vertex -2.75 7 1.59999
    endloop
  endfacet
  facet normal -0 0 1
    outer loop
      vertex -2.75 7 1.59999
      vertex -2.5 6 1.59999
      vertex -2.5 7 1.59999
    endloop
  endfacet
  facet normal 0 0 1
    outer loop
      vertex -2.5 6 1.59999
      vertex -2.75 7 1.59999
      vertex -2.75 6 1.59999
    endloop
  endfacet
  facet normal -0 0 1
    outer loop
      vertex -2.75 39.8 1.59999
      vertex -2.5 38.8 1.59999
      vertex -2.5 39.8 1.59999
    endloop
  endfacet
  facet normal 0 0 1
    outer loop
      vertex -2.5 38.8 1.59999
      vertex -2.75 39.8 1.59999
      vertex -2.75 38.8 1.59999
    endloop
  endfacet
  facet normal 0 0 1
    outer loop
      vertex -2.5 39.8 1.59999
      vertex 2.5 39.8 1.59999
      vertex 2.5 41.7415 1.59999
    endloop
  endfacet
  facet normal 0 0 1
    outer loop
      vertex 2.5 39.8 1.59999
      vertex -2.5 39.8 1.59999
      vertex 2.5 38.8 1.59999
    endloop
  endfacet
  facet normal 0 0 1
    outer loop
      vertex 2.5 38.8 1.59999
      vertex -2.5 38.8 1.59999
      vertex 2.5 7 1.59999
    endloop
  endfacet
  facet normal 0 0 1
    outer loop
      vertex -2.5 7 1.59999
      vertex 2.5 7 1.59999
      vertex -2.5 38.8 1.59999
    endloop
  endfacet
  facet normal 0 0 1
    outer loop
      vertex -2.5 41.7415 1.59999
      vertex 2.5 41.7415 1.59999
      vertex 1.988 44.8 1.59999
    endloop
  endfacet
  facet normal 0 0 1
    outer loop
      vertex -2.5 41.7415 1.59999
      vertex 1.988 44.8 1.59999
      vertex -1.988 44.8 1.59999
    endloop
  endfacet
  facet normal 0 0 1
    outer loop
      vertex 2.5 41.7415 1.59999
      vertex -2.5 41.7415 1.59999
      vertex -2.5 39.8 1.59999
    endloop
  endfacet
  facet normal 0 0 1
    outer loop
      vertex 2.5 38.8 1.59999
      vertex -2.5 39.8 1.59999
      vertex -2.5 38.8 1.59999
    endloop
  endfacet
  facet normal 0 0 1
    outer loop
      vertex 2.5 7 1.59999
      vertex -2.5 7 1.59999
      vertex 2.5 6 1.59999
    endloop
  endfacet
  facet normal 0 0 1
    outer loop
      vertex -2.5 6 1.59999
      vertex 2.5 6 1.59999
      vertex -2.5 7 1.59999
    endloop
  endfacet
  facet normal 0 0 1
    outer loop
      vertex 2.5 6 1.59999
      vertex -2.5 6 1.59999
      vertex 2.5 0 1.59999
    endloop
  endfacet
  facet normal 0 0 1
    outer loop
      vertex 2.5 0 1.59999
      vertex -2.5 6 1.59999
      vertex -2.5 0 1.59999
    endloop
  endfacet
  facet normal -0 0 1
    outer loop
      vertex 2.5 39.8 1.59999
      vertex 2.75 38.8 1.59999
      vertex 2.75 39.8 1.59999
    endloop
  endfacet
  facet normal 0 0 1
    outer loop
      vertex 2.75 38.8 1.59999
      vertex 2.5 39.8 1.59999
      vertex 2.5 38.8 1.59999
    endloop
  endfacet
  facet normal -0 0 1
    outer loop
      vertex 2.5 7 1.59999
      vertex 2.75 6 1.59999
      vertex 2.75 7 1.59999
    endloop
  endfacet
  facet normal 0 0 1
    outer loop
      vertex 2.75 6 1.59999
      vertex 2.5 7 1.59999
      vertex 2.5 6 1.59999
    endloop
  endfacet
  facet normal 0.624695 0 -0.780869
    outer loop
      vertex 1.5 6 0.599991
      vertex 2.75 7 1.59999
      vertex 2.75 6 1.59999
    endloop
  endfacet
  facet normal 0.624695 0 -0.780869
    outer loop
      vertex 2.75 7 1.59999
      vertex 1.5 6 0.599991
      vertex 1.5 7 0.599991
    endloop
  endfacet
  facet normal 0 -1 0
    outer loop
      vertex -2.5 38.8 -1.59999
      vertex -1.5 38.8 -0.599991
      vertex -2.75 38.8 -1.59999
    endloop
  endfacet
  facet normal 0 -1 0
    outer loop
      vertex 2.5 38.8 -1.59999
      vertex 2.75 38.8 -1.59999
      vertex 1.5 38.8 -0.599991
    endloop
  endfacet
  facet normal -0 -1 0
    outer loop
      vertex 2.75 38.8 1.59999
      vertex 2.5 38.8 1.59999
      vertex 1.5 38.8 0.599991
    endloop
  endfacet
  facet normal 0 -1 0
    outer loop
      vertex -1.5 38.8 0.599991
      vertex -2.5 38.8 1.59999
      vertex -2.75 38.8 1.59999
    endloop
  endfacet
  facet normal 0 1 0
    outer loop
      vertex 2.75 39.8 -1.59999
      vertex 2.5 39.8 -1.59999
      vertex 1.5 39.8 -0.599991
    endloop
  endfacet
  facet normal 0 1 0
    outer loop
      vertex -1.5 39.8 -0.599991
      vertex -2.5 39.8 -1.59999
      vertex -2.75 39.8 -1.59999
    endloop
  endfacet
  facet normal -0 1 0
    outer loop
      vertex 2.5 39.8 1.59999
      vertex 2.75 39.8 1.59999
      vertex 1.5 39.8 0.599991
    endloop
  endfacet
  facet normal 0 1 0
    outer loop
      vertex -2.5 39.8 1.59999
      vertex -1.5 39.8 0.599991
      vertex -2.75 39.8 1.59999
    endloop
  endfacet
  facet normal 0.624695 0 0.780869
    outer loop
      vertex 1.5 39.8 -0.599991
      vertex 2.75 38.8 -1.59999
      vertex 2.75 39.8 -1.59999
    endloop
  endfacet
  facet normal 0.624695 0 0.780869
    outer loop
      vertex 2.75 38.8 -1.59999
      vertex 1.5 39.8 -0.599991
      vertex 1.5 38.8 -0.599991
    endloop
  endfacet
  facet normal -0.624695 0 0.780869
    outer loop
      vertex -2.75 39.8 -1.59999
      vertex -1.5 38.8 -0.599991
      vertex -1.5 39.8 -0.599991
    endloop
  endfacet
  facet normal -0.624695 0 0.780869
    outer loop
      vertex -1.5 38.8 -0.599991
      vertex -2.75 39.8 -1.59999
      vertex -2.75 38.8 -1.59999
    endloop
  endfacet
  facet normal -0.624695 0 -0.780869
    outer loop
      vertex -2.75 38.8 1.59999
      vertex -1.5 39.8 0.599991
      vertex -1.5 38.8 0.599991
    endloop
  endfacet
  facet normal -0.624695 0 -0.780869
    outer loop
      vertex -1.5 39.8 0.599991
      vertex -2.75 38.8 1.59999
      vertex -2.75 39.8 1.59999
    endloop
  endfacet
  facet normal 0.624695 0 -0.780869
    outer loop
      vertex 1.5 38.8 0.599991
      vertex 2.75 39.8 1.59999
      vertex 2.75 38.8 1.59999
    endloop
  endfacet
  facet normal 0.624695 0 -0.780869
    outer loop
      vertex 2.75 39.8 1.59999
      vertex 1.5 38.8 0.599991
      vertex 1.5 39.8 0.599991
    endloop
  endfacet
  facet normal 0 -1 0
    outer loop
      vertex -1.5 0 0.599991
      vertex 2.5 0 1.59999
      vertex -2.5 0 1.59999
    endloop
  endfacet
  facet normal 0 -1 0
    outer loop
      vertex -1.5 0 0.599991
      vertex 1.5 0 0.599991
      vertex 2.5 0 1.59999
    endloop
  endfacet
  facet normal 0 -1 0
    outer loop
      vertex -1.5 0 -0.599991
      vertex 1.5 0 0.599991
      vertex -1.5 0 0.599991
    endloop
  endfacet
  facet normal 0 -1 0
    outer loop
      vertex -1.5 0 -0.599991
      vertex 1.5 0 -0.599991
      vertex 1.5 0 0.599991
    endloop
  endfacet
  facet normal 0 -1 0
    outer loop
      vertex -2.5 0 -1.59999
      vertex 1.5 0 -0.599991
      vertex -1.5 0 -0.599991
    endloop
  endfacet
  facet normal 0 -1 -0
    outer loop
      vertex 1.5 0 -0.599991
      vertex -2.5 0 -1.59999
      vertex 2.5 0 -1.59999
    endloop
  endfacet
  facet normal 0 1 0
    outer loop
      vertex 1.5 44.8 0.599991
      vertex 1.988 44.8 1.59999
      vertex 1.988 44.8 1.08799
    endloop
  endfacet
  facet normal 0 1 0
    outer loop
      vertex 1.988 44.8 1.59999
      vertex 1.5 44.8 0.599991
      vertex -1.988 44.8 1.59999
    endloop
  endfacet
  facet normal 0 1 -0
    outer loop
      vertex -1.5 44.8 0.599991
      vertex -1.988 44.8 1.59999
      vertex 1.5 44.8 0.599991
    endloop
  endfacet
  facet normal 0 1 0
    outer loop
      vertex -1.988 44.8 1.59999
      vertex -1.5 44.8 0.599991
      vertex -1.988 44.8 1.08799
    endloop
  endfacet
  facet normal 0 1 -0
    outer loop
      vertex 1.5 44.8 -0.599991
      vertex -1.5 44.8 0.599991
      vertex 1.5 44.8 0.599991
    endloop
  endfacet
  facet normal 0 1 0
    outer loop
      vertex 1.5 44.8 -0.599991
      vertex -1.5 44.8 -0.599991
      vertex -1.5 44.8 0.599991
    endloop
  endfacet
  facet normal 0 1 -0
    outer loop
      vertex 1.988 44.8 -1.59999
      vertex 1.5 44.8 -0.599991
      vertex 1.988 44.8 -1.08799
    endloop
  endfacet
  facet normal 0 1 0
    outer loop
      vertex 1.5 44.8 -0.599991
      vertex 1.988 44.8 -1.59999
      vertex -1.5 44.8 -0.599991
    endloop
  endfacet
  facet normal 0 1 0
    outer loop
      vertex -1.988 44.8 -1.59999
      vertex -1.5 44.8 -0.599991
      vertex 1.988 44.8 -1.59999
    endloop
  endfacet
  facet normal 0 1 0
    outer loop
      vertex -1.5 44.8 -0.599991
      vertex -1.988 44.8 -1.59999
      vertex -1.988 44.8 -1.08799
    endloop
  endfacet
  facet normal 0.707106 -0 0.707107
    outer loop
      vertex 1.5 0 -0.599991
      vertex 2.5 6 -1.59999
      vertex 1.5 6 -0.599991
    endloop
  endfacet
  facet normal 0.707106 0 0.707107
    outer loop
      vertex 2.5 6 -1.59999
      vertex 1.5 0 -0.599991
      vertex 2.5 0 -1.59999
    endloop
  endfacet
  facet normal 0.707106 -2.42564e-07 0.707108
    outer loop
      vertex 1.5 44.8 -0.599991
      vertex 2.5 41.7415 -1.59999
      vertex 1.988 44.8 -1.08799
    endloop
  endfacet
  facet normal 0.707106 -0 0.707107
    outer loop
      vertex 1.5 39.8 -0.599991
      vertex 2.5 41.7415 -1.59999
      vertex 1.5 44.8 -0.599991
    endloop
  endfacet
  facet normal 0.707106 0 0.707107
    outer loop
      vertex 2.5 41.7415 -1.59999
      vertex 1.5 39.8 -0.599991
      vertex 2.5 39.8 -1.59999
    endloop
  endfacet
  facet normal 0.707106 -0 0.707107
    outer loop
      vertex 1.5 7 -0.599991
      vertex 2.5 38.8 -1.59999
      vertex 1.5 38.8 -0.599991
    endloop
  endfacet
  facet normal 0.707106 0 0.707107
    outer loop
      vertex 2.5 38.8 -1.59999
      vertex 1.5 7 -0.599991
      vertex 2.5 7 -1.59999
    endloop
  endfacet
  facet normal -0.707106 0 0.707107
    outer loop
      vertex -2.5 0 -1.59999
      vertex -1.5 6 -0.599991
      vertex -2.5 6 -1.59999
    endloop
  endfacet
  facet normal -0.707106 0 0.707107
    outer loop
      vertex -1.5 6 -0.599991
      vertex -2.5 0 -1.59999
      vertex -1.5 0 -0.599991
    endloop
  endfacet
  facet normal -0.707106 -2.42564e-07 0.707108
    outer loop
      vertex -2.5 41.7415 -1.59999
      vertex -1.5 44.8 -0.599991
      vertex -1.988 44.8 -1.08799
    endloop
  endfacet
  facet normal -0.707106 0 0.707107
    outer loop
      vertex -1.5 39.8 -0.599991
      vertex -2.5 41.7415 -1.59999
      vertex -2.5 39.8 -1.59999
    endloop
  endfacet
  facet normal -0.707106 0 0.707107
    outer loop
      vertex -2.5 41.7415 -1.59999
      vertex -1.5 39.8 -0.599991
      vertex -1.5 44.8 -0.599991
    endloop
  endfacet
  facet normal -0.707106 0 0.707107
    outer loop
      vertex -2.5 7 -1.59999
      vertex -1.5 38.8 -0.599991
      vertex -2.5 38.8 -1.59999
    endloop
  endfacet
  facet normal -0.707106 0 0.707107
    outer loop
      vertex -1.5 38.8 -0.599991
      vertex -2.5 7 -1.59999
      vertex -1.5 7 -0.599991
    endloop
  endfacet
  facet normal -0.707106 0 -0.707107
    outer loop
      vertex -1.5 0 0.599991
      vertex -2.5 6 1.59999
      vertex -1.5 6 0.599991
    endloop
  endfacet
  facet normal -0.707106 -0 -0.707107
    outer loop
      vertex -2.5 6 1.59999
      vertex -1.5 0 0.599991
      vertex -2.5 0 1.59999
    endloop
  endfacet
  facet normal -0.707106 -2.42564e-07 -0.707108
    outer loop
      vertex -1.5 44.8 0.599991
      vertex -2.5 41.7415 1.59999
      vertex -1.988 44.8 1.08799
    endloop
  endfacet
  facet normal -0.707106 0 -0.707107
    outer loop
      vertex -1.5 39.8 0.599991
      vertex -2.5 41.7415 1.59999
      vertex -1.5 44.8 0.599991
    endloop
  endfacet
  facet normal -0.707106 -0 -0.707107
    outer loop
      vertex -2.5 41.7415 1.59999
      vertex -1.5 39.8 0.599991
      vertex -2.5 39.8 1.59999
    endloop
  endfacet
  facet normal -0.707106 0 -0.707107
    outer loop
      vertex -1.5 7 0.599991
      vertex -2.5 38.8 1.59999
      vertex -1.5 38.8 0.599991
    endloop
  endfacet
  facet normal -0.707106 -0 -0.707107
    outer loop
      vertex -2.5 38.8 1.59999
      vertex -1.5 7 0.599991
      vertex -2.5 7 1.59999
    endloop
  endfacet
  facet normal 0.707106 0 -0.707107
    outer loop
      vertex 2.5 0 1.59999
      vertex 1.5 6 0.599991
      vertex 2.5 6 1.59999
    endloop
  endfacet
  facet normal 0.707106 0 -0.707107
    outer loop
      vertex 1.5 6 0.599991
      vertex 2.5 0 1.59999
      vertex 1.5 0 0.599991
    endloop
  endfacet
  facet normal 0.707106 -2.42564e-07 -0.707108
    outer loop
      vertex 2.5 41.7415 1.59999
      vertex 1.5 44.8 0.599991
      vertex 1.988 44.8 1.08799
    endloop
  endfacet
  facet normal 0.707106 0 -0.707107
    outer loop
      vertex 1.5 39.8 0.599991
      vertex 2.5 41.7415 1.59999
      vertex 2.5 39.8 1.59999
    endloop
  endfacet
  facet normal 0.707106 0 -0.707107
    outer loop
      vertex 2.5 41.7415 1.59999
      vertex 1.5 39.8 0.599991
      vertex 1.5 44.8 0.599991
    endloop
  endfacet
  facet normal 0.707106 0 -0.707107
    outer loop
      vertex 2.5 7 1.59999
      vertex 1.5 38.8 0.599991
      vertex 2.5 38.8 1.59999
    endloop
  endfacet
  facet normal 0.707106 0 -0.707107
    outer loop
      vertex 1.5 38.8 0.599991
      vertex 2.5 7 1.59999
      vertex 1.5 7 0.599991
    endloop
  endfacet
  facet normal 0.986276 0.165105 0
    outer loop
      vertex 2.5 41.7415 -1.59999
      vertex 1.988 44.8 -1.59999
      vertex 1.988 44.8 -1.08799
    endloop
  endfacet
  facet normal 0.986276 0.165105 0
    outer loop
      vertex 2.5 41.7415 1.59999
      vertex 1.988 44.8 1.08799
      vertex 1.988 44.8 1.59999
    endloop
  endfacet
  facet normal -0.986276 0.165105 0
    outer loop
      vertex -1.988 44.8 -1.59999
      vertex -2.5 41.7415 -1.59999
      vertex -1.988 44.8 -1.08799
    endloop
  endfacet
  facet normal -0.986276 0.165105 0
    outer loop
      vertex -1.988 44.8 1.08799
      vertex -2.5 41.7415 1.59999
      vertex -1.988 44.8 1.59999
    endloop
  endfacet
endsolid OpenSCAD_Model
